<svg xmlns="http://www.w3.org/2000/svg" width="42.854" height="42.854" viewBox="0 0 42.854 42.854">
  <g id="그룹_1562" data-name="그룹 1562" transform="translate(0.9 0.9)">
    <path id="패스_6563" data-name="패스 6563" d="M1588.962,944.134h0a4.462,4.462,0,0,1-4.463-4.463V926.285a1.786,1.786,0,0,1,1.785-1.785h7.14v15.172A4.462,4.462,0,0,1,1588.962,944.134Z" transform="translate(-1584.5 -903.081)" fill="none" stroke="#163567" stroke-linecap="round" stroke-linejoin="round" stroke-width="1.8"/>
    <path id="패스_6564" data-name="패스 6564" d="M1591.07,948.2V914.285a1.786,1.786,0,0,1,1.785-1.785h28.559a1.786,1.786,0,0,1,1.785,1.785V948.2a5.355,5.355,0,0,1-5.355,5.355H1587.5" transform="translate(-1582.145 -912.5)" fill="none" stroke="#163567" stroke-linecap="round" stroke-linejoin="round" stroke-width="1.8"/>
    <line id="선_150" data-name="선 150" x2="19" transform="translate(15.365 28)" fill="none" stroke="#163567" stroke-linecap="round" stroke-linejoin="round" stroke-width="1.8"/>
    <line id="선_151" data-name="선 151" x2="19" transform="translate(15.365 34)" fill="none" stroke="#163567" stroke-linecap="round" stroke-linejoin="round" stroke-width="1.8"/>
    <rect id="사각형_765" data-name="사각형 765" width="23" height="13" transform="translate(13.365 6)" fill="none" stroke="#163567" stroke-linecap="round" stroke-linejoin="round" stroke-width="1.8"/>
  </g>
</svg>
