<svg xmlns="http://www.w3.org/2000/svg" width="19.732" height="21.3" viewBox="0 0 19.732 21.3">
  <g id="그룹_1700" data-name="그룹 1700" transform="translate(0.65 0.65)">
    <path id="패스_6542" data-name="패스 6542" d="M1651.126,301.452c-2.362-.574-2.825-3.832-3.29-8.6-.253-2.6-2.048-4.348-5.12-4.348s-4.867,1.748-5.12,4.348c-.465,4.772-.927,8.03-3.29,8.6a.945.945,0,0,0-.806.848v1.852a.957.957,0,0,0,1.024.87h16.384a.957.957,0,0,0,1.024-.87V302.3A.944.944,0,0,0,1651.126,301.452Z" transform="translate(-1633.5 -288.5)" fill="none" stroke="#3d3d3d" stroke-linecap="round" stroke-linejoin="round" stroke-width="1.3"/>
    <path id="패스_6543" data-name="패스 6543" d="M1643.978,309.5a1.739,1.739,0,1,1-3.478,0" transform="translate(-1633.023 -291.239)" fill="none" stroke="#3d3d3d" stroke-linecap="round" stroke-linejoin="round" stroke-width="1.3"/>
  </g>
</svg>
