<svg xmlns="http://www.w3.org/2000/svg" width="40.379" height="43.758" viewBox="0 0 40.379 43.758">
  <g id="그룹_1136" data-name="그룹 1136" transform="translate(-112.543 -31.781)">
    <g id="그룹_1133" data-name="그룹 1133" transform="translate(112.793 32.031)">
      <path id="패스_7746" data-name="패스 7746" d="M132.732,34.044c.061,0,.122,0,.183.008a1.843,1.843,0,0,1,1.681,1.818v.67A11.546,11.546,0,0,1,144.771,47.7c0,18.955,5.757,12.122,5.757,17.125v.268a.965.965,0,0,1-.994.934h-33.6a.965.965,0,0,1-.994-.934c0-5.8,5.757,2.059,5.757-17.393a11.546,11.546,0,0,1,10.175-11.159V35.8a1.81,1.81,0,0,1,1.864-1.751m6.231,33.733a6.28,6.28,0,0,1-12.462,0h12.462m-6.231-35.746a3.974,3.974,0,0,0-3.893,2.868,13.383,13.383,0,0,0-10.29,12.8c0,11.351-1.914,12.269-2.942,12.763-1.424.684-2.815,1.6-2.815,4.629a3.05,3.05,0,0,0,3.138,2.947h8.441a8.445,8.445,0,0,0,16.72,0h8.442a3.05,3.05,0,0,0,3.138-2.947v-.268A4.2,4.2,0,0,0,150,60.576c-1.079-.545-3.088-1.558-3.088-12.876a13.384,13.384,0,0,0-10.309-12.806,3.99,3.99,0,0,0-3.487-2.845c-.128-.011-.258-.017-.386-.017Z" transform="translate(-112.793 -32.031)" fill="#3d3d3d" stroke="#3d3d3d" stroke-width="0.5"/>
    </g>
    <g id="그룹_1134" data-name="그룹 1134" transform="translate(139.373 32.308)">
      <path id="패스_7747" data-name="패스 7747" d="M171.9,49.833a1.007,1.007,0,0,1-1.007-1.007A15.548,15.548,0,0,0,161.4,34.516a1.007,1.007,0,0,1,.785-1.854A17.532,17.532,0,0,1,172.9,48.826,1.007,1.007,0,0,1,171.9,49.833Z" transform="translate(-160.788 -32.581)" fill="#3d3d3d" stroke="#3d3d3d" stroke-width="0.5"/>
    </g>
    <g id="그룹_1135" data-name="그룹 1135" transform="translate(113.977 32.308)">
      <path id="패스_7748" data-name="패스 7748" d="M116.152,49.833a1.007,1.007,0,0,1-1.007-1.007A17.564,17.564,0,0,1,125.86,32.661a1.007,1.007,0,0,1,.785,1.854,15.518,15.518,0,0,0-9.486,14.311A1.007,1.007,0,0,1,116.152,49.833Z" transform="translate(-115.145 -32.581)" fill="#3d3d3d" stroke="#3d3d3d" stroke-width="0.5"/>
    </g>
  </g>
</svg>
