<svg xmlns="http://www.w3.org/2000/svg" width="21.3" height="21.3" viewBox="0 0 21.3 21.3">
  <g id="그룹_1695" data-name="그룹 1695" transform="translate(0.65 0.65)">
    <path id="패스_6537" data-name="패스 6537" d="M1129.5,1143.5h5.33a.9.9,0,0,1,.85.694,2.61,2.61,0,0,0,2.516,1.915h2.609a2.61,2.61,0,0,0,2.516-1.915.9.9,0,0,1,.85-.694h5.33" transform="translate(-1129.5 -1130.457)" fill="none" stroke="#3d3d3d" stroke-linecap="round" stroke-linejoin="round" stroke-width="1.3"/>
    <path id="패스_6538" data-name="패스 6538" d="M1133.5,1138.935V1128.5h10.408l2.636,2.663v7.772" transform="translate(-1130.022 -1128.5)" fill="none" stroke="#3d3d3d" stroke-linecap="round" stroke-linejoin="round" stroke-width="1.3"/>
    <line id="선_135" data-name="선 135" x2="5.217" transform="translate(7.391 4.783)" fill="none" stroke="#3d3d3d" stroke-linecap="round" stroke-linejoin="round" stroke-width="1.3"/>
    <line id="선_136" data-name="선 136" x2="5.217" transform="translate(7.391 8.261)" fill="none" stroke="#3d3d3d" stroke-linecap="round" stroke-linejoin="round" stroke-width="1.3"/>
    <path id="패스_6539" data-name="패스 6539" d="M1148.63,1134.5l.87,7.826v5.217a1.739,1.739,0,0,1-1.739,1.739h-16.522a1.739,1.739,0,0,1-1.739-1.739v-5.217l.87-7.826" transform="translate(-1129.5 -1129.283)" fill="none" stroke="#3d3d3d" stroke-linecap="round" stroke-linejoin="round" stroke-width="1.3"/>
  </g>
</svg>
