<svg xmlns="http://www.w3.org/2000/svg" width="42.854" height="42.854" viewBox="0 0 42.854 42.854">
  <g id="그룹_1565" data-name="그룹 1565" transform="translate(0.9 0.901)">
    <path id="패스_6551" data-name="패스 6551" d="M606.855,835.21h1.785V824.5h-1.785a5.354,5.354,0,0,0-5.355,5.355h0A5.354,5.354,0,0,0,606.855,835.21Z" transform="translate(-599.715 -810.221)" fill="none" stroke="#163567" stroke-linecap="round" stroke-linejoin="round" stroke-width="1.8"/>
    <path id="패스_6552" data-name="패스 6552" d="M621.285,835.21H619.5V824.5h1.785a5.354,5.354,0,0,1,5.355,5.355h0A5.355,5.355,0,0,1,621.285,835.21Z" transform="translate(-585.586 -810.221)" fill="none" stroke="#163567" stroke-linecap="round" stroke-linejoin="round" stroke-width="1.8"/>
    <path id="패스_6553" data-name="패스 6553" d="M605.5,830.779v-3.57c0-5.915,6.579-10.71,12.495-10.71h0c5.915,0,12.495,4.794,12.495,10.71v3.57" transform="translate(-596.575 -816.5)" fill="none" stroke="#163567" stroke-linecap="round" stroke-linejoin="round" stroke-width="1.8"/>
    <path id="패스_6554" data-name="패스 6554" d="M622.64,830.5a7.4,7.4,0,0,1-7.14,7.14" transform="translate(-588.726 -805.511)" fill="none" stroke="#163567" stroke-linecap="round" stroke-linejoin="round" stroke-width="1.8"/>
    <path id="패스_6555" data-name="패스 6555" d="M620.79,834.98a14.5,14.5,0,0,1,1.767,1.5,9.235,9.235,0,0,1,3.07,6.569" transform="translate(-584.573 -801.995)" fill="none" stroke="#163567" stroke-linecap="round" stroke-linejoin="round" stroke-width="1.8"/>
    <path id="패스_6556" data-name="패스 6556" d="M600.5,844.594c0-5.266,5.337-9.764,12.887-11.584" transform="translate(-600.5 -803.541)" fill="none" stroke="#163567" stroke-linecap="round" stroke-linejoin="round" stroke-width="1.8"/>
    <path id="패스_6557" data-name="패스 6557" d="M616.855,837.07h-3.57a1.786,1.786,0,0,1-1.785-1.785h0a1.786,1.786,0,0,1,1.785-1.785h3.57a1.786,1.786,0,0,1,1.785,1.785h0A1.786,1.786,0,0,1,616.855,837.07Z" transform="translate(-591.865 -803.156)" fill="none" stroke="#163567" stroke-linecap="round" stroke-linejoin="round" stroke-width="1.8"/>
  </g>
</svg>
