<?xml version="1.0" encoding="utf-8"?>
<!-- Generator: Adobe Illustrator 16.0.0, SVG Export Plug-In . SVG Version: 6.00 Build 0)  -->
<!DOCTYPE svg PUBLIC "-//W3C//DTD SVG 1.1//EN" "http://www.w3.org/Graphics/SVG/1.1/DTD/svg11.dtd">
<svg version="1.1" id="Layer_1" xmlns="http://www.w3.org/2000/svg" xmlns:xlink="http://www.w3.org/1999/xlink" x="0px" y="0px"
	 width="131.498px" height="184.143px" viewBox="0 0 131.498 184.143" enable-background="new 0 0 131.498 184.143"
	 xml:space="preserve">
<g id="그룹_1063" transform="translate(-18670.295 -20905)">
	<path id="패스_6532" fill="#FFFFFF" d="M18746.711,20919.426c-1.568,1.605-3.828,1.941-5.049,0.748
		c-1.223-1.193-0.938-3.459,0.631-5.064c1.57-1.605,3.832-1.941,5.051-0.75S18748.281,20917.82,18746.711,20919.426z"/>
	<g id="그룹_1062">
		<g id="그룹_1059" transform="translate(17.375 54.062)">
			<path id="패스_6533" fill="#FFFFFF" d="M18749.846,20921.342l-0.018-0.01c-0.012,0.035-0.014,0.07-0.008,0.107
				C18749.828,20921.406,18749.84,20921.375,18749.846,20921.342z"/>
			<path id="패스_6534" fill="#FFFFFF" d="M18749.855,20921.305c-0.023,0.598-0.23,1.176-0.59,1.652l-0.008,0.02
				c-2.018-0.531-3.941-1.375-5.699-2.5c-6.15-4.26-11.572-9.484-16.057-15.475c1.734,0.572,3.467,1.131,5.164,1.723
				c0.764,0.27,1.545,0.545,2.33,0.83c1.211,1.453,2.467,2.867,3.77,4.246
				C18741.961,20915.176,18745.738,20918.904,18749.855,20921.305z"/>
		</g>
		<g id="그룹_1060" transform="translate(3.447)">
			<path id="패스_6535" fill="#FFFFFF" d="M18730.438,20916.908c-3.029,5.221-3.402,10.205-2.527,15.986
				c0.453,2.641,1.219,5.219,2.281,7.676c2.68,5.672,5.863,11.09,9.514,16.188c2.422,1.027,4.982,1.813,7.363,2.578
				c-2.941-3.762-5.588-7.744-7.916-11.914c-4.57-8.178-8.451-15.734-5.723-25.162c2.648-9.146,11.016-16.463,20.684-17.252
				C18742.969,20904.828,18734.537,20909.83,18730.438,20916.908z"/>
		</g>
		<g id="그룹_1061" transform="translate(0 13.666)">
			<path id="패스_6536" fill="#FFFFFF" d="M18771.891,20963.375c-1.311,0.695-3.643,0.328-5.258,0l0.008-0.016
				c0.359-0.48,0.566-1.057,0.59-1.656c0.021-0.1,0.035-0.203,0.049-0.316c0.258-1.949-1.244-4.199-2.4-5.678
				c-3.025-3.9-7.895-6.057-12.52-7.756c-0.783-0.285-1.564-0.563-2.328-0.832c-1.699-0.594-3.43-1.148-5.164-1.723
				c-3.701-1.102-7.275-2.594-10.662-4.453c-6.232-3.668-8.064-10.176-5.748-16.898c6.4-18.563,30.764-19.816,40.131-18.777
				c-9.182,1.012-17.961,4.316-25.527,9.613c-4.742,3.07-8.236,7.73-9.857,13.143c-0.777,3.428,0.045,7.021,2.234,9.768
				c2.098,2.371,4.742,4.191,7.707,5.301c2.426,1.027,4.982,1.814,7.363,2.576c0.6,0.193,1.199,0.389,1.779,0.584
				c5.625,1.91,11.859,3.82,16.311,7.941C18769.996,20955.477,18775.063,20961.699,18771.891,20963.375z"/>
		</g>
	</g>
</g>
<g enable-background="new    ">
	<path fill="#FFFFFF" d="M7.405,109.848c0,2.918,0.987,5.879,3.716,7.328l-1.491,2.057c-1.701-0.902-2.813-2.436-3.506-4.283
		c-0.651,2.016-1.785,3.738-3.527,4.746l-1.554-2.079c2.75-1.616,3.737-4.787,3.737-7.769v-0.398H1.757v-2.227h3.023v-2.604h2.625
		v2.604h2.96v2.227h-2.96V109.848z M11.458,104.305h2.583v18.141h-2.583v-8.902H9.253v-2.246h2.205V104.305z M17.987,103.969v19.338
		h-2.625v-19.338H17.987z"/>
	<path fill="#FFFFFF" d="M33.192,115.201v1.785h2.058v6.361h-2.771v-4.199H21.812v-2.162h2.184v-1.785H19.88v-2.204h17.469v2.204
		H33.192z M21.623,108.168c0-2.33,2.75-3.779,6.992-3.779c4.262,0,7.013,1.449,7.013,3.779c0,2.373-2.75,3.821-7.013,3.821
		C24.374,111.989,21.623,110.541,21.623,108.168z M24.479,108.168c0,1.134,1.512,1.68,4.136,1.68c2.646,0,4.157-0.546,4.157-1.68
		c0-1.092-1.512-1.658-4.157-1.658C25.99,106.51,24.479,107.076,24.479,108.168z M30.441,115.201h-3.674v1.785h3.674V115.201z"/>
	<path fill="#FFFFFF" d="M48.669,114.971c-2.1-0.693-3.548-2.058-4.388-3.758c-0.84,1.952-2.373,3.527-4.619,4.283l-1.407-2.184
		c3.065-1.071,4.472-3.527,4.556-5.942h-3.8v-2.226h10.393v2.226h-3.758c0.084,2.204,1.428,4.472,4.367,5.438L48.669,114.971z
		 M54.611,119.632c0,2.352-2.52,3.716-6.614,3.716c-4.115,0-6.635-1.364-6.635-3.716s2.52-3.716,6.635-3.716
		C52.092,115.916,54.611,117.28,54.611,119.632z M51.84,119.632c0-1.092-1.323-1.616-3.842-1.616c-2.541,0-3.863,0.524-3.863,1.616
		s1.323,1.616,3.863,1.616C50.517,121.248,51.84,120.724,51.84,119.632z M51.756,108.65v-4.66h2.771v11.506h-2.771v-4.599h-2.897
		v-2.247H51.756z"/>
	<path fill="#FFFFFF" d="M74.352,118.834v2.246H56.84v-2.246h7.349v-3.549h-5.501v-10.099h2.75v3.003h8.272v-3.003h2.729v10.099
		h-5.479v3.549H74.352z M61.438,113.081h8.272v-2.708h-8.272V113.081z"/>
	<path fill="#FFFFFF" d="M82.816,108.294c0,3.591,1.532,7.118,4.808,8.524l-1.575,2.246c-2.225-1.008-3.716-2.918-4.576-5.291
		c-0.861,2.583-2.436,4.662-4.746,5.754l-1.658-2.289c3.381-1.449,4.977-5.186,4.977-8.944v-2.813h2.771V108.294z M91.34,103.969
		v19.4h-2.771v-19.4H91.34z"/>
	<path fill="#FFFFFF" d="M111.311,118.729v2.247h-17.51v-2.247H111.311z M109.526,115.412c-3.359-0.672-5.837-2.541-7.075-4.998
		c-1.239,2.457-3.695,4.347-7.055,4.998l-1.176-2.311c4.346-0.756,6.76-3.82,6.76-6.592v-1.387h2.961v1.387
		c0,2.834,2.394,5.836,6.761,6.592L109.526,115.412z"/>
	<path fill="#FFFFFF" d="M121.225,114.361c-2.184,0.399-4.01,0.441-6.865,0.441h-1.323v-9.658h7.265v2.184h-4.598v1.533h3.926v2.1
		h-3.926v1.658c2.036-0.021,3.548-0.126,5.291-0.441L121.225,114.361z M115.66,116.293h13.102v6.803H115.66V116.293z
		 M118.391,120.934h7.663v-2.478h-7.663V120.934z M122.338,110.855h-1.891v-2.226h1.891v-4.347h2.582v11.107h-2.582V110.855z
		 M128.762,104.011v11.526h-2.624v-11.526H128.762z"/>
</g>
<g enable-background="new    ">
	<path fill="#FFFFFF" d="M4.138,137.355c-1.101,0-1.651,0.386-1.651,1.157c0,0.398,0.13,0.683,0.39,0.852
		c0.26,0.169,0.834,0.377,1.723,0.624c0.888,0.247,1.515,0.542,1.878,0.884c0.364,0.343,0.546,0.882,0.546,1.618
		c0,0.937-0.267,1.637-0.799,2.1c-0.533,0.464-1.259,0.695-2.178,0.695c-0.736,0-1.551-0.086-2.444-0.26l-0.468-0.091l0.143-1.157
		c1.17,0.156,2.063,0.234,2.678,0.234c1.075,0,1.612-0.477,1.612-1.43c0-0.373-0.121-0.648-0.364-0.826s-0.789-0.372-1.638-0.585
		c-0.849-0.212-1.482-0.505-1.898-0.877c-0.416-0.373-0.624-0.962-0.624-1.769c0-0.806,0.262-1.415,0.787-1.826
		c0.524-0.412,1.25-0.617,2.177-0.617c0.667,0,1.456,0.077,2.366,0.233l0.455,0.078l-0.117,1.17
		C5.498,137.425,4.64,137.355,4.138,137.355z"/>
	<path fill="#FFFFFF" d="M11.847,142.374h-1.82v2.769H8.583v-8.905h3.263c2.019,0,3.029,0.997,3.029,2.99
		c0,1.022-0.253,1.803-0.76,2.34C13.608,142.105,12.852,142.374,11.847,142.374z M10.027,141.126h1.807
		c1.04,0,1.56-0.633,1.56-1.898c0-0.606-0.125-1.049-0.377-1.326s-0.646-0.416-1.183-0.416h-1.807V141.126z"/>
	<path fill="#FFFFFF" d="M22.318,144.193c-0.533,0.729-1.471,1.092-2.814,1.092c-1.344,0-2.284-0.365-2.821-1.098
		c-0.537-0.732-0.806-1.883-0.806-3.452c0-1.568,0.271-2.734,0.813-3.497c0.542-0.763,1.479-1.144,2.814-1.144
		c1.334,0,2.271,0.379,2.808,1.138c0.538,0.758,0.806,1.926,0.806,3.503C23.117,142.313,22.851,143.466,22.318,144.193z
		 M17.813,143.258c0.294,0.512,0.858,0.767,1.69,0.767s1.393-0.251,1.683-0.754c0.291-0.503,0.436-1.346,0.436-2.528
		c0-1.184-0.149-2.043-0.448-2.581c-0.299-0.537-0.856-0.806-1.67-0.806c-0.815,0-1.374,0.269-1.677,0.806
		c-0.303,0.538-0.455,1.394-0.455,2.568C17.371,141.903,17.519,142.746,17.813,143.258z"/>
	<path fill="#FFFFFF" d="M26.237,141.971v3.172h-1.443v-8.905h3.38c2.01,0,3.016,0.945,3.016,2.834c0,1.266-0.485,2.124-1.456,2.574
		l1.469,3.497h-1.586l-1.287-3.172H26.237z M29.708,139.085c0-1.066-0.511-1.6-1.534-1.6h-1.937v3.237H28.2
		c0.52,0,0.901-0.149,1.144-0.448C29.586,139.975,29.708,139.578,29.708,139.085z"/>
	<path fill="#FFFFFF" d="M31.918,137.524v-1.287h6.5v1.287h-2.509v7.618h-1.456v-7.618H31.918z"/>
	<path fill="#FFFFFF" d="M42.227,137.355c-1.101,0-1.651,0.386-1.651,1.157c0,0.398,0.13,0.683,0.39,0.852
		c0.26,0.169,0.834,0.377,1.723,0.624c0.888,0.247,1.515,0.542,1.878,0.884c0.364,0.343,0.546,0.882,0.546,1.618
		c0,0.937-0.267,1.637-0.799,2.1c-0.533,0.464-1.259,0.695-2.178,0.695c-0.736,0-1.551-0.086-2.444-0.26l-0.468-0.091l0.143-1.157
		c1.17,0.156,2.063,0.234,2.678,0.234c1.075,0,1.612-0.477,1.612-1.43c0-0.373-0.121-0.648-0.364-0.826s-0.789-0.372-1.638-0.585
		c-0.849-0.212-1.482-0.505-1.898-0.877c-0.416-0.373-0.624-0.962-0.624-1.769c0-0.806,0.262-1.415,0.787-1.826
		c0.524-0.412,1.25-0.617,2.177-0.617c0.667,0,1.456,0.077,2.366,0.233l0.455,0.078l-0.117,1.17
		C43.587,137.425,42.729,137.355,42.227,137.355z"/>
</g>
<g enable-background="new    ">
	<path fill="#FFFFFF" d="M1.524,162.143v-8.905h1.443v8.905H1.524z"/>
	<path fill="#FFFFFF" d="M5.021,162.143v-8.905h2.522l2.704,7.631h0.195v-7.631h1.443v8.905h-2.47l-2.769-7.644H6.465v7.644H5.021z"
		/>
	<path fill="#FFFFFF" d="M13.939,162.143v-8.905h5.525v1.262h-4.082v3.003h3.393v1.261h-3.393v3.38H13.939z"/>
	<path fill="#FFFFFF" d="M26.816,161.193c-0.533,0.729-1.471,1.092-2.814,1.092c-1.344,0-2.284-0.365-2.821-1.098
		c-0.537-0.732-0.806-1.883-0.806-3.452c0-1.568,0.271-2.734,0.813-3.497c0.542-0.763,1.479-1.144,2.814-1.144
		c1.334,0,2.271,0.379,2.808,1.138c0.538,0.758,0.806,1.926,0.806,3.503C27.615,159.313,27.349,160.466,26.816,161.193z
		 M22.312,160.258c0.294,0.512,0.858,0.767,1.69,0.767s1.393-0.251,1.683-0.754c0.291-0.503,0.436-1.346,0.436-2.528
		c0-1.184-0.149-2.043-0.448-2.581c-0.299-0.537-0.856-0.806-1.67-0.806c-0.815,0-1.374,0.269-1.677,0.806
		c-0.303,0.538-0.455,1.394-0.455,2.568C21.869,158.903,22.017,159.746,22.312,160.258z"/>
	<path fill="#FFFFFF" d="M30.735,158.971v3.172h-1.443v-8.905h3.38c2.01,0,3.016,0.945,3.016,2.834c0,1.266-0.485,2.124-1.456,2.574
		l1.469,3.497h-1.586l-1.287-3.172H30.735z M34.206,156.085c0-1.066-0.511-1.6-1.534-1.6h-1.937v3.237h1.963
		c0.52,0,0.901-0.149,1.144-0.448C34.084,156.975,34.206,156.578,34.206,156.085z"/>
	<path fill="#FFFFFF" d="M37.326,162.143v-8.905h2.509l1.989,6.955l1.989-6.955h2.522v8.905h-1.456v-7.306h-0.195l-2.106,6.941
		H41.07l-2.106-6.941H38.77v7.306H37.326z"/>
	<path fill="#FFFFFF" d="M47.609,162.143l2.197-8.905h2.873l2.21,8.905h-1.456l-0.481-1.911h-3.419l-0.481,1.911H47.609z
		 M50.924,154.446l-1.105,4.512h2.847l-1.092-4.512H50.924z"/>
	<path fill="#FFFFFF" d="M54.772,154.524v-1.287h6.5v1.287h-2.509v7.618h-1.456v-7.618H54.772z"/>
	<path fill="#FFFFFF" d="M62.468,162.143v-8.905h1.443v8.905H62.468z"/>
	<path fill="#FFFFFF" d="M72.017,161.193c-0.533,0.729-1.472,1.092-2.814,1.092c-1.344,0-2.284-0.365-2.821-1.098
		s-0.806-1.883-0.806-3.452c0-1.568,0.271-2.734,0.813-3.497s1.479-1.144,2.814-1.144s2.271,0.379,2.808,1.138
		c0.537,0.758,0.807,1.926,0.807,3.503C72.816,159.313,72.549,160.466,72.017,161.193z M67.512,160.258
		c0.295,0.512,0.858,0.767,1.69,0.767s1.394-0.251,1.683-0.754c0.291-0.503,0.436-1.346,0.436-2.528
		c0-1.184-0.148-2.043-0.447-2.581c-0.299-0.537-0.856-0.806-1.671-0.806c-0.815,0-1.374,0.269-1.677,0.806
		c-0.304,0.538-0.455,1.394-0.455,2.568C67.07,158.903,67.217,159.746,67.512,160.258z"/>
	<path fill="#FFFFFF" d="M74.492,162.143v-8.905h2.522l2.704,7.631h0.195v-7.631h1.443v8.905h-2.471l-2.77-7.644h-0.182v7.644
		H74.492z"/>
</g>
<g enable-background="new    ">
	<path fill="#FFFFFF" d="M4.138,171.355c-1.101,0-1.651,0.386-1.651,1.157c0,0.398,0.13,0.683,0.39,0.852
		c0.26,0.169,0.834,0.377,1.723,0.624c0.888,0.247,1.515,0.542,1.878,0.884c0.364,0.343,0.546,0.882,0.546,1.618
		c0,0.937-0.267,1.637-0.799,2.1c-0.533,0.464-1.259,0.695-2.178,0.695c-0.736,0-1.551-0.086-2.444-0.26l-0.468-0.091l0.143-1.157
		c1.17,0.156,2.063,0.234,2.678,0.234c1.075,0,1.612-0.477,1.612-1.43c0-0.373-0.121-0.648-0.364-0.826s-0.789-0.372-1.638-0.585
		c-0.849-0.212-1.482-0.505-1.898-0.877c-0.416-0.373-0.624-0.962-0.624-1.769c0-0.806,0.262-1.415,0.787-1.826
		c0.524-0.412,1.25-0.617,2.177-0.617c0.667,0,1.456,0.077,2.366,0.233l0.455,0.078l-0.117,1.17
		C5.498,171.425,4.64,171.355,4.138,171.355z"/>
	<path fill="#FFFFFF" d="M11.665,179.143h-1.456v-3.666l-2.795-5.239h1.625l1.885,3.822l1.898-3.822h1.612l-2.769,5.239V179.143z"/>
	<path fill="#FFFFFF" d="M17.905,171.355c-1.101,0-1.651,0.386-1.651,1.157c0,0.398,0.13,0.683,0.39,0.852
		c0.26,0.169,0.834,0.377,1.723,0.624c0.888,0.247,1.515,0.542,1.878,0.884c0.364,0.343,0.546,0.882,0.546,1.618
		c0,0.937-0.267,1.637-0.799,2.1c-0.533,0.464-1.259,0.695-2.178,0.695c-0.736,0-1.551-0.086-2.444-0.26l-0.468-0.091l0.143-1.157
		c1.17,0.156,2.063,0.234,2.678,0.234c1.075,0,1.612-0.477,1.612-1.43c0-0.373-0.121-0.648-0.364-0.826s-0.789-0.372-1.638-0.585
		c-0.849-0.212-1.482-0.505-1.898-0.877c-0.416-0.373-0.624-0.962-0.624-1.769c0-0.806,0.262-1.415,0.787-1.826
		c0.524-0.412,1.25-0.617,2.177-0.617c0.667,0,1.456,0.077,2.366,0.233l0.455,0.078l-0.117,1.17
		C19.265,171.425,18.407,171.355,17.905,171.355z"/>
	<path fill="#FFFFFF" d="M21.493,171.524v-1.287h6.5v1.287h-2.509v7.618h-1.456v-7.618H21.493z"/>
	<path fill="#FFFFFF" d="M29.188,179.143v-8.905h5.616v1.262h-4.173v2.521h3.393v1.248h-3.393v2.6h4.173v1.274H29.188z"/>
	<path fill="#FFFFFF" d="M36.377,179.143v-8.905h2.509l1.989,6.955l1.989-6.955h2.522v8.905h-1.456v-7.306h-0.195l-2.106,6.941
		h-1.508l-2.106-6.941h-0.195v7.306H36.377z"/>
</g>
<g enable-background="new    ">
	<path fill="#FFFFFF" d="M13.234,63.811c-3.27,0-4.905,1.08-4.905,3.24c0,0.961,0.405,1.695,1.215,2.205
		c0.81,0.511,2.707,1.245,5.692,2.205c2.985,0.96,5.078,2.047,6.278,3.263c1.199,1.215,1.8,3.082,1.8,5.603
		c0,3.21-0.975,5.64-2.925,7.29c-1.951,1.649-4.5,2.475-7.65,2.475c-2.34,0-5.206-0.36-8.595-1.08l-1.62-0.315l0.63-4.814
		c4.02,0.54,7.095,0.81,9.225,0.81c3.18,0,4.77-1.319,4.77-3.96c0-0.959-0.368-1.71-1.103-2.25c-0.735-0.54-2.198-1.125-4.387-1.755
		c-3.48-0.99-5.933-2.167-7.357-3.532c-1.425-1.365-2.138-3.263-2.138-5.692c0-3.061,0.93-5.34,2.79-6.84
		c1.86-1.5,4.41-2.25,7.65-2.25c2.22,0,5.04,0.3,8.46,0.899l1.62,0.315l-0.495,4.905C17.959,64.051,14.974,63.811,13.234,63.811z"/>
	<path fill="#FFFFFF" d="M30.109,89.551v-30.6h6.21v30.6H30.109z"/>
	<path fill="#FFFFFF" d="M54.184,63.811c-3.27,0-4.905,1.08-4.905,3.24c0,0.961,0.405,1.695,1.215,2.205
		c0.81,0.511,2.707,1.245,5.692,2.205c2.985,0.96,5.078,2.047,6.278,3.263c1.199,1.215,1.8,3.082,1.8,5.603
		c0,3.21-0.975,5.64-2.925,7.29c-1.951,1.649-4.5,2.475-7.65,2.475c-2.34,0-5.206-0.36-8.595-1.08l-1.62-0.315l0.63-4.814
		c4.02,0.54,7.095,0.81,9.225,0.81c3.18,0,4.77-1.319,4.77-3.96c0-0.959-0.368-1.71-1.103-2.25c-0.735-0.54-2.198-1.125-4.387-1.755
		c-3.48-0.99-5.933-2.167-7.357-3.532c-1.425-1.365-2.138-3.263-2.138-5.692c0-3.061,0.93-5.34,2.79-6.84
		c1.86-1.5,4.41-2.25,7.65-2.25c2.22,0,5.04,0.3,8.46,0.899l1.62,0.315l-0.495,4.905C58.909,64.051,55.923,63.811,54.184,63.811z"/>
</g>
<g enable-background="new    ">
	<path fill="none" stroke="#FFFFFF" stroke-width="0.5" stroke-miterlimit="10" d="M13.234,63.811c-3.27,0-4.905,1.08-4.905,3.24
		c0,0.961,0.405,1.695,1.215,2.205c0.81,0.511,2.707,1.245,5.692,2.205c2.985,0.96,5.078,2.047,6.278,3.263
		c1.199,1.215,1.8,3.082,1.8,5.603c0,3.21-0.975,5.64-2.925,7.29c-1.951,1.649-4.5,2.475-7.65,2.475c-2.34,0-5.206-0.36-8.595-1.08
		l-1.62-0.315l0.63-4.814c4.02,0.54,7.095,0.81,9.225,0.81c3.18,0,4.77-1.319,4.77-3.96c0-0.959-0.368-1.71-1.103-2.25
		c-0.735-0.54-2.198-1.125-4.387-1.755c-3.48-0.99-5.933-2.167-7.357-3.532c-1.425-1.365-2.138-3.263-2.138-5.692
		c0-3.061,0.93-5.34,2.79-6.84c1.86-1.5,4.41-2.25,7.65-2.25c2.22,0,5.04,0.3,8.46,0.899l1.62,0.315l-0.495,4.905
		C17.959,64.051,14.974,63.811,13.234,63.811z"/>
	<path fill="none" stroke="#FFFFFF" stroke-width="0.5" stroke-miterlimit="10" d="M30.109,89.551v-30.6h6.21v30.6H30.109z"/>
	<path fill="none" stroke="#FFFFFF" stroke-width="0.5" stroke-miterlimit="10" d="M54.184,63.811c-3.27,0-4.905,1.08-4.905,3.24
		c0,0.961,0.405,1.695,1.215,2.205c0.81,0.511,2.707,1.245,5.692,2.205c2.985,0.96,5.078,2.047,6.278,3.263
		c1.199,1.215,1.8,3.082,1.8,5.603c0,3.21-0.975,5.64-2.925,7.29c-1.951,1.649-4.5,2.475-7.65,2.475c-2.34,0-5.206-0.36-8.595-1.08
		l-1.62-0.315l0.63-4.814c4.02,0.54,7.095,0.81,9.225,0.81c3.18,0,4.77-1.319,4.77-3.96c0-0.959-0.368-1.71-1.103-2.25
		c-0.735-0.54-2.198-1.125-4.387-1.755c-3.48-0.99-5.933-2.167-7.357-3.532c-1.425-1.365-2.138-3.263-2.138-5.692
		c0-3.061,0.93-5.34,2.79-6.84c1.86-1.5,4.41-2.25,7.65-2.25c2.22,0,5.04,0.3,8.46,0.899l1.62,0.315l-0.495,4.905
		C58.909,64.051,55.923,63.811,54.184,63.811z"/>
</g>
</svg>
