<?xml version="1.0" encoding="utf-8"?>
<!-- Generator: Adobe Illustrator 16.0.0, SVG Export Plug-In . SVG Version: 6.00 Build 0)  -->
<!DOCTYPE svg PUBLIC "-//W3C//DTD SVG 1.1//EN" "http://www.w3.org/Graphics/SVG/1.1/DTD/svg11.dtd">
<svg version="1.1" id="Layer_1" xmlns="http://www.w3.org/2000/svg" xmlns:xlink="http://www.w3.org/1999/xlink" x="0px" y="0px"
	 width="48px" height="24px" viewBox="0 0 48 24" enable-background="new 0 0 48 24" xml:space="preserve">
<path id="패스_8081" fill="none" d="M0,0h24v24H0V0z"/>
<circle id="타원_246" fill="none" stroke="#3D3D3D" stroke-width="2" stroke-linecap="round" stroke-linejoin="round" cx="9" cy="7" r="4"/>
<path id="패스_8082" fill="none" stroke="#3D3D3D" stroke-width="2" stroke-linecap="round" stroke-linejoin="round" d="M3,21v-2
	c0-2.209,1.791-4,4-4h4c2.209,0,4,1.791,4,4v2"/>
<line id="선_175" fill="none" stroke="#3D3D3D" stroke-width="2" stroke-linecap="round" stroke-linejoin="round" x1="19" y1="7" x2="19" y2="10"/>
<line id="선_176" fill="none" stroke="#3D3D3D" stroke-width="2" stroke-linecap="round" stroke-linejoin="round" x1="19" y1="14" x2="19" y2="14.01"/>
<path id="패스_8081_1_" fill="none" d="M24,0h24v24H24V0z"/>
<circle id="타원_246_1_" fill="none" stroke="#FFFFFF" stroke-width="2" stroke-linecap="round" stroke-linejoin="round" cx="33" cy="7" r="4"/>
<path id="패스_8082_1_" fill="none" stroke="#FFFFFF" stroke-width="2" stroke-linecap="round" stroke-linejoin="round" d="M27,21
	v-2c0-2.209,1.791-4,4-4h4c2.209,0,4,1.791,4,4v2"/>
<line id="선_175_1_" fill="none" stroke="#FFFFFF" stroke-width="2" stroke-linecap="round" stroke-linejoin="round" x1="43" y1="7" x2="43" y2="10"/>
<line id="선_176_1_" fill="none" stroke="#FFFFFF" stroke-width="2" stroke-linecap="round" stroke-linejoin="round" x1="43" y1="14" x2="43" y2="14.01"/>
</svg>
