<?xml version="1.0" encoding="utf-8"?>
<!-- Generator: Adobe Illustrator 25.1.0, SVG Export Plug-In . SVG Version: 6.00 Build 0)  -->
<svg version="1.1" id="Layer_1" xmlns="http://www.w3.org/2000/svg" xmlns:xlink="http://www.w3.org/1999/xlink" x="0px" y="0px"
	 viewBox="0 0 48 24" style="enable-background:new 0 0 48 24;" xml:space="preserve">
<style type="text/css">
	.st0{fill:none;}
	.st1{fill:none;stroke:#FFFFFF;stroke-width:2;stroke-linecap:round;stroke-linejoin:round;}
	.st2{fill:none;stroke:#3D3D3D;stroke-width:2;stroke-linecap:round;stroke-linejoin:round;}
</style>
<path id="패스_8074" class="st0" d="M24,0h24v24H24V0z"/>
<circle id="타원_244" class="st1" cx="33" cy="7" r="4"/>
<path id="패스_8075" class="st1" d="M27,21v-2c0-2.21,1.79-4,4-4h4c2.21,0,4,1.79,4,4v2"/>
<path id="패스_8076" class="st1" d="M40,3.13c2.14,0.55,3.43,2.73,2.88,4.87c-0.36,1.42-1.47,2.52-2.88,2.88"/>
<path id="패스_8077" class="st1" d="M45,21v-2c-0.01-1.82-1.24-3.4-3-3.85"/>
<path id="패스_8074_1_" class="st0" d="M0,0h24v24H0V0z"/>
<circle id="타원_244_1_" class="st2" cx="9" cy="7" r="4"/>
<path id="패스_8075_1_" class="st2" d="M3,21v-2c0-2.21,1.79-4,4-4h4c2.21,0,4,1.79,4,4v2"/>
<path id="패스_8076_1_" class="st2" d="M16,3.13c2.14,0.55,3.43,2.73,2.88,4.87c-0.36,1.42-1.47,2.52-2.88,2.88"/>
<path id="패스_8077_1_" class="st2" d="M21,21v-2c-0.01-1.82-1.24-3.4-3-3.85"/>
</svg>
